<svg width="24" height="24" viewBox="0 0 24 24" fill="none" xmlns="http://www.w3.org/2000/svg">
<g clip-path="url(#clip0_4264_11761)">
<path d="M15 7.5V18.8128C15.0001 18.9362 15.0306 19.0576 15.0888 19.1663C15.147 19.2751 15.2311 19.3678 15.3337 19.4363L16.365 20.1234C16.465 20.1901 16.5796 20.2318 16.6991 20.2449C16.8186 20.2581 16.9395 20.2423 17.0517 20.1989C17.1638 20.1555 17.2638 20.0858 17.3434 19.9957C17.4229 19.9055 17.4797 19.7976 17.5087 19.6809L18.75 15" stroke="#575757" stroke-width="2" stroke-linecap="round" stroke-linejoin="round"/>
<path d="M3.75 18.75C3.75003 18.8928 3.79085 19.0327 3.86765 19.1531C3.94446 19.2735 4.05405 19.3695 4.18354 19.4298C4.31304 19.49 4.45705 19.5121 4.59864 19.4933C4.74023 19.4745 4.87351 19.4157 4.98281 19.3237C9.89531 15.2025 15 15 15 15H18.75C19.7446 15 20.6984 14.6049 21.4017 13.9016C22.1049 13.1984 22.5 12.2445 22.5 11.25C22.5 10.2554 22.1049 9.3016 21.4017 8.59834C20.6984 7.89507 19.7446 7.49999 18.75 7.49999H15C15 7.49999 9.89531 7.29749 4.98281 3.17717C4.87357 3.08528 4.74038 3.02646 4.59887 3.00764C4.45737 2.98883 4.31343 3.01078 4.18397 3.07093C4.05451 3.13109 3.9449 3.22694 3.86803 3.34722C3.79116 3.46751 3.75021 3.60723 3.75 3.74999V18.75Z" stroke="#575757" stroke-width="2" stroke-linecap="round" stroke-linejoin="round"/>
</g>
<defs>
<clipPath id="clip0_4264_11761">
<rect width="24" height="24" fill="white"/>
</clipPath>
</defs>
</svg>
