<svg width="24" height="24" viewBox="0 0 24 24" fill="none" xmlns="http://www.w3.org/2000/svg">
<path d="M20.0062 10.2759L12.5062 3.46031C12.368 3.33382 12.1874 3.26367 12 3.26367C11.8126 3.26367 11.632 3.33382 11.4937 3.46031L3.99375 10.2759C3.91828 10.3472 3.85783 10.4329 3.81597 10.5279C3.77411 10.6229 3.75168 10.7253 3.75 10.8291V19.5009C3.75 19.6998 3.82902 19.8906 3.96967 20.0313C4.11032 20.1719 4.30109 20.2509 4.5 20.2509H19.5C19.6989 20.2509 19.8897 20.1719 20.0303 20.0313C20.171 19.8906 20.25 19.6998 20.25 19.5009V10.8291C20.2483 10.7253 20.2259 10.6229 20.184 10.5279C20.1422 10.4329 20.0817 10.3472 20.0062 10.2759Z" stroke="#66C7F4" stroke-width="2" stroke-linecap="round" stroke-linejoin="round"/>
</svg>
